<svg width="22" height="22" viewBox="0 0 22 22" fill="none" xmlns="http://www.w3.org/2000/svg">
<path d="M21.9922 10.9785C21.9922 11.752 21.4193 12.3578 20.77 12.3578H19.5478L19.5745 19.2414C19.5745 19.3574 19.5669 19.4734 19.5554 19.5894V20.2855C19.5554 21.2352 18.8717 22.0043 18.0276 22.0043H17.4165C17.3745 22.0043 17.3325 22.0043 17.2905 22C17.237 22.0043 17.1835 22.0043 17.1301 22.0043L15.8887 22H14.9721C14.128 22 13.4443 21.2309 13.4443 20.2812V19.25V16.5C13.4443 15.7395 12.8981 15.125 12.2221 15.125H9.77762C9.10158 15.125 8.5554 15.7395 8.5554 16.5V19.25V20.2812C8.5554 21.2309 7.87172 22 7.02762 22H6.11095H4.89255C4.83526 22 4.77797 21.9957 4.72068 21.9914C4.67484 21.9957 4.62901 22 4.58318 22H3.97206C3.12797 22 2.44429 21.2309 2.44429 20.2812V15.4687C2.44429 15.4301 2.44429 15.3871 2.44811 15.3484V12.3535H1.22588C0.538384 12.3535 0.00366211 11.752 0.00366211 10.9742C0.00366211 10.5875 0.118245 10.2437 0.385607 9.94297L10.1748 0.34375C10.4422 0.0429687 10.7478 0 11.0151 0C11.2825 0 11.588 0.0859375 11.8172 0.300781L21.5721 9.94726C21.8776 10.248 22.0304 10.5918 21.9922 10.9785Z" fill="black"/>
</svg>
