<svg width="25" height="19" viewBox="0 0 25 19" fill="none" xmlns="http://www.w3.org/2000/svg">
<path d="M0 1.6875C0 0.823242 0.797991 0.125 1.78571 0.125H23.2143C24.202 0.125 25 0.823242 25 1.6875C25 2.55176 24.202 3.25 23.2143 3.25H1.78571C0.797991 3.25 0 2.55176 0 1.6875ZM0 9.5C0 8.63574 0.797991 7.9375 1.78571 7.9375H23.2143C24.202 7.9375 25 8.63574 25 9.5C25 10.3643 24.202 11.0625 23.2143 11.0625H1.78571C0.797991 11.0625 0 10.3643 0 9.5ZM25 17.3125C25 18.1768 24.202 18.875 23.2143 18.875H1.78571C0.797991 18.875 0 18.1768 0 17.3125C0 16.4482 0.797991 15.75 1.78571 15.75H23.2143C24.202 15.75 25 16.4482 25 17.3125Z" fill="black"/>
</svg>
