<svg width="25" height="25" viewBox="0 0 25 25" fill="none" xmlns="http://www.w3.org/2000/svg">
<path d="M19.8486 19.5117C18.916 17.2314 16.6748 15.625 14.0625 15.625H10.9375C8.3252 15.625 6.08398 17.2314 5.15137 19.5117C3.41309 17.6855 2.34375 15.2197 2.34375 12.5C2.34375 6.88965 6.88965 2.34375 12.5 2.34375C18.1104 2.34375 22.6562 6.88965 22.6562 12.5C22.6562 15.2197 21.5869 17.6855 19.8486 19.5117ZM17.8906 21.1084C16.3281 22.0898 14.4824 22.6562 12.5 22.6562C10.5176 22.6562 8.67188 22.0898 7.10449 21.1084C7.46094 19.3164 9.04297 17.9688 10.9375 17.9688H14.0625C15.957 17.9688 17.5391 19.3164 17.8955 21.1084H17.8906ZM12.5 25C15.8152 25 18.9946 23.683 21.3388 21.3388C23.683 18.9946 25 15.8152 25 12.5C25 9.18479 23.683 6.00537 21.3388 3.66117C18.9946 1.31696 15.8152 0 12.5 0C9.18479 0 6.00537 1.31696 3.66117 3.66117C1.31696 6.00537 0 9.18479 0 12.5C0 15.8152 1.31696 18.9946 3.66117 21.3388C6.00537 23.683 9.18479 25 12.5 25ZM12.5 11.7188C11.982 11.7188 11.4852 11.513 11.1189 11.1467C10.7527 10.7804 10.5469 10.2836 10.5469 9.76562C10.5469 9.24762 10.7527 8.75084 11.1189 8.38456C11.4852 8.01828 11.982 7.8125 12.5 7.8125C13.018 7.8125 13.5148 8.01828 13.8811 8.38456C14.2473 8.75084 14.4531 9.24762 14.4531 9.76562C14.4531 10.2836 14.2473 10.7804 13.8811 11.1467C13.5148 11.513 13.018 11.7188 12.5 11.7188ZM8.20312 9.76562C8.20312 10.9052 8.65583 11.9982 9.46165 12.804C10.2675 13.6098 11.3604 14.0625 12.5 14.0625C13.6396 14.0625 14.7325 13.6098 15.5384 12.804C16.3442 11.9982 16.7969 10.9052 16.7969 9.76562C16.7969 8.62602 16.3442 7.5331 15.5384 6.72728C14.7325 5.92145 13.6396 5.46875 12.5 5.46875C11.3604 5.46875 10.2675 5.92145 9.46165 6.72728C8.65583 7.5331 8.20312 8.62602 8.20312 9.76562Z" fill="black"/>
</svg>
